# xmcd
#
# Track frame offsets:
#	150
#	12635
#	24782
#	36567
#	47375
#	58247
#	70207
#	80617
#	94822
#	106847
#	119387
#	129872
#	141440
#	157865
#	170785
#	180095
#	193787
#	206695
#	219687
#	230827
#
# Disc length: 3201 seconds
#
# Revision: 1
# Processed by: cddbd v1.5.2PL0 Copyright (c) Steve Scherf et al.
# Submitted via: AudioConverter v8.05 Copyright (c) D.R. Software
#
DISCID=1d0c7f14
DTITLE=Freddy Fender - The Tex Mex King 20 Hottest Hits
DYEAR=1900
DGENRE=Country
TTITLE0=Enter My Heart
TTITLE1=Lovin' Cajun Style
TTITLE2=Sweet Summer Day
TTITLE3=The Rains Came
TTITLE4=She's About a Mover
TTITLE5=Comin' Home Soon
TTITLE6=Before the Next Teardrop Falls
TTITLE7=Wasted Days and Wasted Nights
TTITLE8=You'll Lose a Good Thing
TTITLE9=Almost Persuaded
TTITLE10=A Man Can Cry
TTITLE11=I'm Leaving It All Up to You
TTITLE12=Wild Side of Life
TTITLE13=Silver Wings
TTITLE14=Running Back
TTITLE15=Baby I Want to Love You
TTITLE16=The Girl Who Waits on Tables
TTITLE17=Since I Met You Baby
TTITLE18=Mean Woman Blues
TTITLE19=You Made Me Cry
EXTD=
EXTT0=
EXTT1=
EXTT2=
EXTT3=
EXTT4=
EXTT5=
EXTT6=
EXTT7=
EXTT8=
EXTT9=
EXTT10=
EXTT11=
EXTT12=
EXTT13=
EXTT14=
EXTT15=
EXTT16=
EXTT17=
EXTT18=
EXTT19=
PLAYORDER=
